<svg id="Flat" height="512" viewBox="0 0 512 512" width="512" xmlns="http://www.w3.org/2000/svg"><path d="m240 120v48a24.00619 24.00619 0 0 1 -24 24h-48a24 24 0 0 1 0-48 24 24 0 0 1 0-48 23.9928 23.9928 0 0 1 47.03-6.72 23.33537 23.33537 0 0 1 .97 6.72 24.00619 24.00619 0 0 1 24 24z" fill="#349b66"/><path d="m160 192h336v296h-336z" fill="#8ccee9"/><path d="m416 192h80v296h-80z" fill="#37a0c5"/><path d="m480 95.21v96.79h-112v-96.79a71.65079 71.65079 0 0 1 43.39-65.8101 31.99408 31.99408 0 0 1 25.22 0 71.59658 71.59658 0 0 1 43.39 65.8101z" fill="#af7d4d"/><path d="m416 80a15.97833 15.97833 0 0 1 -16 16h-32v-.79a71.40757 71.40757 0 0 1 7.16992-31.21h24.83008a15.99548 15.99548 0 0 1 16 16z" fill="#f0de9c"/><path d="m368 128h32a16 16 0 0 1 16 16 16 16 0 0 1 -16 16h-32a0 0 0 0 1 0 0v-32a0 0 0 0 1 0 0z" fill="#f0de9c"/><path d="m240 120v48a24.00619 24.00619 0 0 1 -24 24h-13.15a31.95908 31.95908 0 0 1 .01-48 31.98334 31.98334 0 0 1 12.17-54.72 23.33537 23.33537 0 0 1 .97 6.72 24.00619 24.00619 0 0 1 24 24z" fill="#008251"/><path d="m296 120v48a24.00619 24.00619 0 0 1 -24 24h-48a24 24 0 0 1 0-48 24 24 0 0 1 0-48 24 24 0 0 1 48 0 24.00619 24.00619 0 0 1 24 24z" fill="#349b66"/><path d="m240 96h16v96h-16z" fill="#008251"/><path d="m328 304v160a24 24 0 0 1 -24 24h-80a24 24 0 0 1 -24-24v-160a24 24 0 0 1 24-24h16v-24h48v24h16a24 24 0 0 1 24 24z" fill="#e64042"/><path d="m264 264h24v16h-24z" fill="#d3393b"/><path d="m224 224h80v32h-80z" fill="#f0de9c"/><path d="m200 328h128v112h-128z" fill="#f0de9c"/><circle cx="176" cy="416" fill="#ea8804" r="72"/><path d="m151.279 336h89.443v16h-89.443z" fill="#af7d4d" transform="matrix(.447 -.894 .894 .447 -199.338 365.445)"/><path d="m204.42236 399.15527-12.81494-6.40722a25.94643 25.94643 0 0 1 -29.33349-10.667l-13.85157-6.92578 7.15528-14.31054 16 8a8.00032 8.00032 0 0 1 3.57763 3.57715 9.89778 9.89778 0 0 0 13.26709 4.42285 7.99742 7.99742 0 0 1 7.15528 0l16 8z" fill="#e4792e"/><path d="m184 320h-20.24655a32 32 0 0 1 -31.67838-27.47452l-4.07507-28.52548 28.52548 4.07507a32 32 0 0 1 27.47452 31.67838z" fill="#349b66"/><path d="m169.372 281.373h16v64h-16z" fill="#986342" transform="matrix(.707 -.707 .707 .707 -169.637 217.206)"/><path d="m168 432a16 16 0 0 1 -16 16l-1.14439 2.861a59.08126 59.08126 0 0 1 -54.85561 37.139 59.08126 59.08126 0 0 1 -54.85557-37.139l-1.14443-2.861a16 16 0 0 1 -16-16 16 16 0 0 1 16-16l1.14439-2.861a59.08126 59.08126 0 0 1 54.85561-37.139 59.08126 59.08126 0 0 1 54.85557 37.139l1.14443 2.861a16 16 0 0 1 16 16z" fill="#a4c52a"/><g fill="#68ba40"><path d="m64 408h16v16h-16z"/><path d="m80 440h16v16h-16z"/><path d="m112 424h16v16h-16z"/></g><path d="m336 120h-48a96.56846 96.56846 0 0 1 -28.28424 68.2842l-3.71576 3.7158h112l-3.71576-3.71576a96.56846 96.56846 0 0 1 -28.28424-68.28424z" fill="#f0c033"/><path d="m280 72h64v48h-64z" fill="#f0de9c"/></svg>